<?xml version="1.0" encoding="utf-8"?>
<!-- Generator: Adobe Illustrator 16.0.4, SVG Export Plug-In . SVG Version: 6.00 Build 0)  -->
<!DOCTYPE svg PUBLIC "-//W3C//DTD SVG 1.1//EN" "http://www.w3.org/Graphics/SVG/1.1/DTD/svg11.dtd">
<svg version="1.1" id="Layer_1" xmlns="http://www.w3.org/2000/svg" xmlns:xlink="http://www.w3.org/1999/xlink" x="0px" y="0px"
	 width="50px" height="50px" viewBox="7 7 50 50" enable-background="new 7 7 50 50" xml:space="preserve">
<g>
	<path fill="none" stroke="#000000" stroke-width="2" stroke-miterlimit="10" d="M24.04,34.023l-5.642,14.52
		c-1.647,4.193,1.085,7.189,5.993,7.189h14.654c4.907,0,7.641-2.996,5.992-7.189l-5.643-14.52"/>
	<path fill="none" stroke="#000000" stroke-width="2" stroke-miterlimit="10" d="M38.3,26.211c-0.037-0.094-0.057-0.198-0.057-0.305
		c0-0.102,0.017-0.199,0.05-0.29l2.213-5.839c0.469-1.196-0.31-2.05-1.709-2.05H24.639c-1.4,0-2.178,0.854-1.709,2.05l2.212,5.839
		c0.033,0.09,0.05,0.188,0.05,0.29c0,0.107-0.02,0.211-0.058,0.305l-2.205,5.823c-0.47,1.197,0.309,2.05,1.709,2.05h14.158
		c1.399,0,2.177-0.854,1.709-2.05L38.3,26.211z"/>
	<polyline fill="none" stroke="#000000" stroke-width="2" stroke-linejoin="round" stroke-miterlimit="10" points="23.551,17.95 
		19.949,8.267 42.854,9.725 39.884,17.95 	"/>
	
		<line fill="none" stroke="#000000" stroke-linejoin="round" stroke-miterlimit="10" x1="21.984" y1="13.729" x2="41.408" y2="13.729"/>
	
		<line fill="none" stroke="#000000" stroke-linejoin="round" stroke-miterlimit="10" x1="23.209" y1="36.164" x2="40.226" y2="36.164"/>
	
		<line fill="none" stroke="#000000" stroke-linejoin="round" stroke-miterlimit="10" x1="25.377" y1="25.906" x2="34.019" y2="25.906"/>
	
		<line fill="none" stroke="#000000" stroke-linejoin="round" stroke-miterlimit="10" x1="18.4" y1="52.875" x2="45.036" y2="52.875"/>
	<path fill="none" stroke="#000000" stroke-width="2" stroke-linejoin="round" stroke-miterlimit="10" d="M39.015,28.111
		c1.19-0.032,2.147-1.007,2.147-2.206c0-1.2-0.957-2.174-2.147-2.206"/>
	<path fill="none" stroke="#000000" stroke-width="2" stroke-linecap="round" stroke-linejoin="round" stroke-miterlimit="10" d="
		M46.008,38.637c0.268-5.164,0.068-8.26-5.058-11.79"/>
</g>
</svg>
