<?xml version="1.0" encoding="utf-8"?>
<!-- Generator: Adobe Illustrator 16.0.4, SVG Export Plug-In . SVG Version: 6.00 Build 0)  -->
<!DOCTYPE svg PUBLIC "-//W3C//DTD SVG 1.1//EN" "http://www.w3.org/Graphics/SVG/1.1/DTD/svg11.dtd">
<svg version="1.1" id="Ebene_1" xmlns="http://www.w3.org/2000/svg" xmlns:xlink="http://www.w3.org/1999/xlink" x="0px" y="0px"
	 width="50px" height="50px" viewBox="275 225 50 50" enable-background="new 275 225 50 50" xml:space="preserve">
<g>
	<path d="M319.646,237.831c0-1.964-1.607-3.571-3.572-3.571c-0.825,0-1.606,0.29-2.21,0.781c2.143,0.982,4.108,2.054,5.782,3.058
		C319.646,238.01,319.646,237.921,319.646,237.831z"/>
	<path d="M324.671,242.632c-0.089-0.067-0.179-0.134-0.291-0.223c-0.201-0.157-0.446-0.335-0.714-0.537
		c-0.134-0.089-0.269-0.199-0.425-0.312c-4.13-2.992-13.82-9.086-23.219-9.086l0,0c0,0,0,0-0.022,0
		c-8.775,0-19.045,5.336-23.488,8.483c-1.675,1.185-2.009,3.886-0.759,5.136l17.281,20.808c0.335,0.402,0.826,0.626,1.362,0.626
		h11.273c0.27,0,0.537-0.134,0.693-0.335l18.442-23.31C325.116,243.503,325.05,242.944,324.671,242.632z M294.396,265.739
		l-17.259-20.785c-0.044-0.045-0.067-0.09-0.111-0.111c-0.179-0.18-0.268-0.558-0.224-0.982c0.045-0.604,0.335-1.139,0.759-1.43
		c4.622-3.281,14.423-8.171,22.438-8.171h0.022c4.308,0,9.198,1.361,14.512,4.063c3.885,1.964,6.921,4.131,8.327,5.157
		l-17.615,22.259H294.396z"/>
	<path d="M299.353,262.838h-0.067c-0.067,0-0.134,0.021-0.156,0.089l-0.916,1.385c-0.089,0.134,0,0.312,0.156,0.312h0.067
		c0.067,0,0.134-0.022,0.157-0.09l0.915-1.384C299.599,263.017,299.509,262.838,299.353,262.838z"/>
	<path d="M300.469,262.838h-0.066c-0.067,0-0.134,0.021-0.156,0.089l-0.916,1.385c-0.089,0.134,0,0.312,0.156,0.312h0.067
		c0.067,0,0.134-0.022,0.156-0.09l0.914-1.384C300.714,263.017,300.624,262.838,300.469,262.838z"/>
	<path d="M301.584,262.838h-0.066c-0.067,0-0.135,0.021-0.155,0.089l-0.916,1.385c-0.089,0.134,0,0.312,0.155,0.312h0.067
		c0.067,0,0.134-0.022,0.156-0.09l0.915-1.384C301.83,263.017,301.74,262.838,301.584,262.838z"/>
	<path d="M302.701,262.838h-0.067c-0.066,0-0.134,0.021-0.156,0.089l-0.915,1.385c-0.09,0.134,0,0.312,0.155,0.312h0.067
		c0.067,0,0.135-0.022,0.156-0.09l0.915-1.384C302.946,263.017,302.856,262.838,302.701,262.838z"/>
	<path d="M295.378,262.391l-0.044-0.045c-0.089-0.11-0.246-0.089-0.313,0.023l-0.826,1.25c-0.045,0.067-0.045,0.179,0.022,0.245
		l0.045,0.045c0.089,0.111,0.245,0.09,0.312-0.022l0.826-1.25C295.445,262.548,295.445,262.458,295.378,262.391z"/>
	<path d="M297.12,262.838h-0.067c-0.067,0-0.134,0.021-0.156,0.089l-0.916,1.385c-0.089,0.134,0,0.312,0.156,0.312h0.067
		c0.067,0,0.134-0.022,0.157-0.09l0.915-1.384C297.365,263.017,297.276,262.838,297.12,262.838z"/>
	<path d="M296.003,262.838h-0.067c-0.067,0-0.134,0.021-0.156,0.089l-0.915,1.385c-0.089,0.134,0,0.312,0.156,0.312h0.067
		c0.067,0,0.134-0.022,0.157-0.09l0.915-1.384C296.249,263.017,296.16,262.838,296.003,262.838z"/>
	<path d="M298.236,262.838h-0.067c-0.067,0-0.134,0.021-0.156,0.089l-0.916,1.385c-0.089,0.134,0,0.312,0.156,0.312h0.066
		c0.067,0,0.135-0.022,0.157-0.09l0.916-1.384C298.482,263.017,298.393,262.838,298.236,262.838z"/>
	<path d="M303.816,262.838h-0.066c-0.067,0-0.134,0.021-0.156,0.089l-0.916,1.385c-0.089,0.134,0,0.312,0.157,0.312h0.066
		c0.067,0,0.134-0.022,0.157-0.09l0.914-1.384C304.062,263.017,303.973,262.838,303.816,262.838z"/>
	<path d="M294.753,261.654l-0.044-0.045c-0.089-0.11-0.246-0.09-0.313,0.023l-0.826,1.25c-0.044,0.065-0.044,0.179,0.022,0.245
		l0.045,0.045c0.089,0.111,0.245,0.089,0.312-0.022l0.826-1.25C294.82,261.812,294.82,261.722,294.753,261.654z"/>
	<path d="M290.399,256.407l-0.044-0.044c-0.089-0.112-0.246-0.09-0.312,0.021l-0.826,1.251c-0.044,0.066-0.044,0.179,0.022,0.245
		l0.044,0.045c0.089,0.112,0.245,0.089,0.312-0.021l0.827-1.251C290.466,256.564,290.466,256.476,290.399,256.407z"/>
	<path d="M291.025,257.145l-0.044-0.045c-0.089-0.111-0.246-0.09-0.313,0.023l-0.826,1.25c-0.044,0.065-0.044,0.178,0.022,0.244
		l0.044,0.046c0.089,0.111,0.246,0.089,0.313-0.022l0.826-1.25C291.091,257.322,291.091,257.212,291.025,257.145z"/>
	<path d="M291.65,257.904l-0.044-0.045c-0.089-0.112-0.246-0.09-0.312,0.021l-0.827,1.25c-0.044,0.067-0.044,0.18,0.022,0.246
		l0.044,0.045c0.089,0.111,0.246,0.089,0.313-0.022l0.826-1.25C291.717,258.06,291.717,257.97,291.65,257.904z"/>
	<path d="M292.275,258.641l-0.044-0.045c-0.089-0.112-0.246-0.089-0.312,0.021l-0.827,1.251c-0.044,0.067-0.044,0.179,0.022,0.245
		l0.044,0.045c0.089,0.111,0.246,0.09,0.313-0.022l0.826-1.25C292.342,258.819,292.319,258.707,292.275,258.641z"/>
	<path d="M287.921,253.415l-0.045-0.044c-0.089-0.111-0.246-0.09-0.312,0.023l-0.826,1.25c-0.044,0.065-0.044,0.178,0.022,0.245
		l0.044,0.045c0.09,0.111,0.246,0.089,0.313-0.022l0.826-1.251C287.988,253.571,287.966,253.483,287.921,253.415z"/>
	<path d="M288.547,254.152l-0.045-0.045c-0.089-0.11-0.246-0.089-0.313,0.023l-0.826,1.25c-0.044,0.066-0.044,0.179,0.022,0.245
		l0.045,0.045c0.089,0.111,0.246,0.089,0.312-0.022l0.826-1.251C288.591,254.309,288.591,254.22,288.547,254.152z"/>
	<path d="M289.172,254.912l-0.045-0.045c-0.09-0.112-0.246-0.089-0.313,0.022l-0.826,1.25c-0.045,0.067-0.045,0.179,0.022,0.245
		l0.044,0.045c0.089,0.111,0.246,0.09,0.312-0.022l0.826-1.25C289.216,255.068,289.216,254.979,289.172,254.912z"/>
	<path d="M289.774,255.648l-0.044-0.045c-0.089-0.111-0.246-0.089-0.312,0.022l-0.826,1.25c-0.044,0.067-0.044,0.179,0.022,0.247
		l0.044,0.044c0.089,0.111,0.245,0.09,0.312-0.022l0.827-1.25C289.841,255.805,289.841,255.716,289.774,255.648z"/>
	<path d="M292.9,259.399l-0.044-0.045c-0.089-0.111-0.245-0.089-0.312,0.022l-0.827,1.25c-0.044,0.067-0.044,0.179,0.022,0.246
		l0.044,0.044c0.089,0.113,0.246,0.09,0.312-0.021l0.826-1.25C292.945,259.556,292.945,259.467,292.9,259.399z"/>
	<path d="M293.525,260.136l-0.045-0.044c-0.089-0.112-0.245-0.09-0.312,0.021l-0.827,1.25c-0.044,0.067-0.044,0.18,0.022,0.246
		l0.045,0.045c0.089,0.112,0.245,0.089,0.312-0.021l0.804-1.25C293.57,260.314,293.57,260.203,293.525,260.136z"/>
	<path d="M294.128,260.896l-0.044-0.045c-0.09-0.112-0.246-0.09-0.313,0.022l-0.826,1.25c-0.045,0.067-0.045,0.178,0.022,0.246
		l0.045,0.045c0.089,0.11,0.245,0.089,0.312-0.023l0.826-1.25C294.195,261.051,294.195,260.962,294.128,260.896z"/>
	<path d="M287.296,252.657l-0.045-0.044c-0.089-0.113-0.245-0.091-0.312,0.021l-0.826,1.25c-0.044,0.068-0.044,0.179,0.022,0.247
		l0.044,0.045c0.089,0.111,0.246,0.089,0.312-0.023l0.826-1.25C287.363,252.812,287.363,252.724,287.296,252.657z"/>
	<path d="M286.046,251.161l-0.045-0.045c-0.089-0.111-0.246-0.089-0.313,0.022l-0.826,1.25c-0.044,0.067-0.044,0.18,0.022,0.245
		l0.044,0.045c0.089,0.111,0.246,0.09,0.313-0.021l0.826-1.252C286.113,251.316,286.113,251.227,286.046,251.161z"/>
	<path d="M286.671,251.897l-0.045-0.045c-0.089-0.111-0.245-0.089-0.312,0.022l-0.826,1.251c-0.044,0.066-0.044,0.179,0.022,0.245
		l0.044,0.044c0.089,0.112,0.246,0.09,0.312-0.021l0.826-1.251C286.738,252.076,286.738,251.965,286.671,251.897z"/>
	<path d="M285.421,250.402l-0.045-0.045c-0.089-0.112-0.246-0.089-0.313,0.022l-0.826,1.25c-0.044,0.066-0.044,0.179,0.022,0.245
		l0.044,0.045c0.089,0.111,0.246,0.088,0.312-0.022l0.827-1.25C285.488,250.58,285.488,250.469,285.421,250.402z"/>
	<path d="M281.067,245.177l-0.045-0.045c-0.089-0.11-0.245-0.089-0.312,0.023l-0.826,1.25c-0.045,0.067-0.045,0.179,0.022,0.246
		l0.045,0.044c0.089,0.112,0.246,0.09,0.312-0.021l0.826-1.251C281.134,245.334,281.134,245.245,281.067,245.177z"/>
	<path d="M281.692,245.913l-0.045-0.044c-0.089-0.111-0.246-0.09-0.312,0.023l-0.826,1.25c-0.045,0.066-0.045,0.178,0.022,0.245
		l0.045,0.045c0.089,0.111,0.246,0.089,0.313-0.022l0.825-1.251C281.759,246.07,281.759,245.981,281.692,245.913z"/>
	<path d="M282.317,246.674l-0.045-0.045c-0.089-0.111-0.246-0.09-0.312,0.022l-0.826,1.25c-0.045,0.066-0.045,0.179,0.022,0.246
		l0.045,0.045c0.089,0.11,0.246,0.089,0.313-0.023l0.826-1.25C282.384,246.83,282.384,246.74,282.317,246.674z"/>
	<path d="M282.942,247.41l-0.045-0.045c-0.089-0.111-0.246-0.089-0.312,0.022l-0.826,1.25c-0.045,0.068-0.045,0.179,0.022,0.246
		l0.045,0.045c0.09,0.11,0.246,0.09,0.313-0.023l0.826-1.25C283.01,247.566,283.01,247.477,282.942,247.41z"/>
	<path d="M280.464,244.419l-0.044-0.045c-0.089-0.112-0.246-0.089-0.312,0.021l-0.826,1.25c-0.044,0.068-0.044,0.179,0.022,0.247
		l0.045,0.044c0.088,0.112,0.245,0.09,0.312-0.023l0.826-1.25C280.509,244.574,280.509,244.485,280.464,244.419z"/>
	<path d="M283.568,248.169l-0.045-0.045c-0.09-0.111-0.246-0.089-0.312,0.023l-0.826,1.25c-0.045,0.066-0.045,0.179,0.022,0.245
		l0.045,0.044c0.089,0.113,0.245,0.09,0.312-0.021l0.826-1.25C283.635,248.326,283.612,248.237,283.568,248.169z"/>
	<path d="M284.193,248.905l-0.045-0.044c-0.089-0.111-0.246-0.09-0.312,0.022l-0.826,1.25c-0.045,0.066-0.045,0.179,0.022,0.246
		l0.045,0.045c0.089,0.11,0.245,0.089,0.312-0.022l0.826-1.25C284.237,249.084,284.237,248.974,284.193,248.905z"/>
	<path d="M284.818,249.665l-0.045-0.044c-0.089-0.113-0.246-0.09-0.313,0.021l-0.826,1.25c-0.045,0.067-0.045,0.179,0.022,0.246
		l0.045,0.045c0.089,0.111,0.246,0.088,0.312-0.022l0.804-1.272C284.862,249.821,284.862,249.731,284.818,249.665z"/>
	<path d="M304.934,262.838h-0.066c-0.067,0-0.135,0.021-0.157,0.089l-0.915,1.385c-0.089,0.134,0,0.312,0.155,0.312h0.067
		c0.068,0,0.135-0.022,0.157-0.09l0.915-1.384C305.18,263.017,305.09,262.838,304.934,262.838z"/>
	<path d="M279.817,243.682l-0.045-0.045c-0.089-0.111-0.246-0.089-0.313,0.022l-0.826,1.25c-0.044,0.067-0.044,0.179,0.022,0.246
		l0.045,0.045c0.089,0.11,0.246,0.089,0.312-0.023l0.826-1.25C279.884,243.86,279.884,243.748,279.817,243.682z"/>
</g>
</svg>
