<?xml version="1.0" encoding="utf-8"?>
<!-- Generator: Adobe Illustrator 16.0.4, SVG Export Plug-In . SVG Version: 6.00 Build 0)  -->
<!DOCTYPE svg PUBLIC "-//W3C//DTD SVG 1.1//EN" "http://www.w3.org/Graphics/SVG/1.1/DTD/svg11.dtd">
<svg version="1.1" id="Layer_1" xmlns="http://www.w3.org/2000/svg" xmlns:xlink="http://www.w3.org/1999/xlink" x="0px" y="0px"
	 width="50px" height="50px" viewBox="231 231 50 50" enable-background="new 231 231 50 50" xml:space="preserve">
<path d="M234.013,265.644c-0.575,0.804-1.378,0.804-1.608-0.173c-0.862-3.732,1.033-8.556,4.938-12.403
	c4.594-4.651,10.451-6.431,14.299-4.307c0.631,0.402,0.804,0.804,0.631,1.149c-1.264,2.526-4.135,5.685-9.36,8.039
	C238.376,260.016,235.678,263.001,234.013,265.644z M235.678,269.893c-0.632-0.345-0.804-0.976-0.459-1.665
	c1.321-2.469,4.02-5.514,8.901-7.752c4.536-2.067,7.407-4.939,9.188-7.408c0.517-0.861,1.148-1.091,1.378-0.402
	c1.206,3.791-0.631,8.843-4.766,12.978C245.382,270.18,239.525,272.017,235.678,269.893z M274.495,246.694
	c0.977,0.114,1.322,0.861,0.519,1.492c-2.986,2.355-8.155,2.643-13.382,0.747c-6.085-2.182-10.22-6.718-9.876-11.14
	c0.058-0.747,0.402-1.091,0.804-1.091c2.756,0.115,6.834,1.378,11.198,5.111C267.548,245.086,271.395,246.234,274.495,246.694z
	 M277.653,243.363c-0.057,0.747-0.574,1.091-1.32,1.091c-2.813-0.172-6.718-1.32-10.796-4.767c-3.789-3.215-7.579-4.65-10.623-5.167
	c-0.976-0.173-1.436-0.632-0.918-1.149c2.928-2.641,8.327-3.1,13.781-1.148C273.807,234.462,277.941,238.999,277.653,243.363z
	 M273.117,279.482c0.632,0.746,0.46,1.55-0.574,1.492c-3.847-0.114-7.981-3.215-10.737-7.981
	c-3.216-5.628-3.504-11.714-0.402-14.872c0.517-0.574,0.976-0.632,1.263-0.345c2.068,1.838,4.423,5.455,5.341,11.14
	C268.869,273.797,271.051,277.186,273.117,279.482z M277.653,278.966c-0.516,0.517-1.148,0.517-1.722,0
	c-2.011-1.896-4.307-5.341-5.226-10.624c-0.805-4.881-2.813-8.44-4.767-10.738c-0.689-0.746-0.689-1.435,0-1.435
	c3.962-0.172,8.384,2.928,11.255,7.925C280.468,269.663,280.697,275.808,277.653,278.966z"/>
</svg>
