<?xml version="1.0" encoding="utf-8"?>
<!-- Generator: Adobe Illustrator 16.0.4, SVG Export Plug-In . SVG Version: 6.00 Build 0)  -->
<!DOCTYPE svg PUBLIC "-//W3C//DTD SVG 1.1//EN" "http://www.w3.org/Graphics/SVG/1.1/DTD/svg11.dtd">
<svg version="1.1" id="Icons" xmlns="http://www.w3.org/2000/svg" xmlns:xlink="http://www.w3.org/1999/xlink" x="0px" y="0px"
	 width="132px" height="114.895px" viewBox="-16 0 132 114.895" enable-background="new -16 0 132 114.895" xml:space="preserve">
<g id="coffee_break">
	<path fill="#A50804" d="M84.085,36.174c-17.632,0-31.915,14.285-31.915,31.915s14.283,31.915,31.915,31.915S116,85.719,116,68.088
		C116,50.458,101.717,36.174,84.085,36.174z M84.085,91.493c-12.931,0-23.403-10.479-23.403-23.404s10.475-23.404,23.403-23.404
		c12.931,0,23.403,10.479,23.403,23.404C107.488,81.014,97.016,91.493,84.085,91.493z"/>
	<path fill="#E00B05" d="M84.085,36.174c-17.632,0-31.915,14.285-31.915,31.915s14.283,31.915,31.915,31.915S116,85.719,116,68.088
		C116,50.458,101.717,36.174,84.085,36.174z M84.085,95.749c-15.28,0-27.659-12.385-27.659-27.66
		c0-15.277,12.379-27.659,27.659-27.659s27.66,12.382,27.66,27.659C111.745,83.364,99.365,95.749,84.085,95.749z"/>
	<path fill="#D60303" d="M16,29.789v74.467c0,5.852,4.787,10.639,10.638,10.639h46.809c5.851,0,10.638-4.787,10.638-10.639V29.788
		L16,29.789L16,29.789z"/>
	<path fill="#E23939" d="M79.83,29.789v74.467c0,3.519-2.863,6.384-6.383,6.384H26.638c-3.519,0-6.383-2.865-6.383-6.384V29.788H16
		v74.468c0,5.852,4.787,10.639,10.638,10.639h46.809c5.851,0,10.638-4.787,10.638-10.639V29.788L79.83,29.789L79.83,29.789z"/>
	<path fill="#A50804" d="M79.83,29.789v74.467c0,3.519-2.863,6.384-6.383,6.384H26.638v4.255h46.809
		c5.851,0,10.638-4.787,10.638-10.639V29.788L79.83,29.789L79.83,29.789z"/>
	<path fill="#F4F4F4" d="M56.426,6.384c0-3.989,4.256-6.383,4.256-6.383S50.043,2.394,50.043,8.511s10.639,4.521,10.639,8.511
		s-6.384,10.639-6.384,10.639s14.894-4.521,14.894-10.639S56.426,10.374,56.426,6.384z"/>
	<path fill="#F4F4F4" d="M35.149,6.384c0-3.989,4.255-6.383,4.255-6.383S28.766,2.394,28.766,8.511s10.638,4.521,10.638,8.511
		s-6.383,10.639-6.383,10.639s14.894-4.521,14.894-10.639S35.149,10.374,35.149,6.384z"/>
	<path fill="#E24444" d="M33.021,89.362c-3.526,0-6.383-2.855-6.383-6.383V61.704c0-3.526,2.857-6.384,6.383-6.384
		s6.383,2.857,6.383,6.384v21.275C39.404,86.506,36.547,89.362,33.021,89.362z"/>
	<circle fill="#E24444" cx="33.021" cy="44.683" r="6.383"/>
	<path fill="#A50804" d="M88.341,95.388c-1.389,0.214-2.806,0.359-4.256,0.359v4.255c1.446,0,2.858-0.129,4.256-0.315V95.388z"/>
	<path fill="#A50804" d="M88.341,40.789v-4.301c-1.396-0.185-2.81-0.313-4.256-0.313v4.255
		C85.535,40.428,86.952,40.572,88.341,40.789z"/>
</g>
</svg>
