<?xml version="1.0" encoding="utf-8"?>
<!-- Generator: Adobe Illustrator 16.0.4, SVG Export Plug-In . SVG Version: 6.00 Build 0)  -->
<!DOCTYPE svg PUBLIC "-//W3C//DTD SVG 1.1//EN" "http://www.w3.org/Graphics/SVG/1.1/DTD/svg11.dtd">
<svg version="1.1" id="Layer_1" xmlns="http://www.w3.org/2000/svg" xmlns:xlink="http://www.w3.org/1999/xlink" x="0px" y="0px"
	 width="50px" height="50px" viewBox="7 7 50 50" enable-background="new 7 7 50 50" xml:space="preserve">
<g>
	<polygon fill="none" stroke="#000000" stroke-width="2" stroke-linejoin="round" stroke-miterlimit="10" points="15.048,14.857 
		48.955,14.857 49.931,8.044 14.069,8.044 	"/>
	<polygon fill="none" stroke="#000000" stroke-width="2" stroke-linejoin="round" stroke-miterlimit="10" points="48.955,14.857 
		15.048,14.857 13.091,18.202 13.091,29.556 13.091,41.257 13.091,52.613 15.048,55.956 48.955,55.956 50.909,52.613 50.909,41.257 
		50.909,29.556 50.909,18.202 	"/>
	
		<line fill="none" stroke="#000000" stroke-linecap="round" stroke-linejoin="round" stroke-miterlimit="10" x1="50.909" y1="52.613" x2="29.611" y2="52.613"/>
	
		<line fill="none" stroke="#000000" stroke-linecap="round" stroke-linejoin="round" stroke-miterlimit="10" x1="26.85" y1="52.613" x2="24.895" y2="52.613"/>
	
		<line fill="none" stroke="#000000" stroke-linecap="round" stroke-linejoin="round" stroke-miterlimit="10" x1="17.269" y1="12.674" x2="17.269" y2="10.229"/>
	
		<line fill="none" stroke="#000000" stroke-linecap="round" stroke-linejoin="round" stroke-miterlimit="10" x1="43.67" y1="12.674" x2="43.67" y2="10.229"/>
	
		<circle fill="none" stroke="#000000" stroke-width="2" stroke-linecap="round" stroke-linejoin="round" stroke-miterlimit="10" cx="32" cy="34.24" r="10.819"/>
	
		<line fill="none" stroke="#000000" stroke-linecap="round" stroke-linejoin="round" stroke-miterlimit="10" x1="13.091" y1="18.202" x2="24.749" y2="18.202"/>
	<g>
		<path d="M38.088,33.556c-0.049-1.557-0.398-3.023-1.33-4.305c-0.758-1.042-1.76-1.725-3.027-1.996
			c-0.283-0.06-0.535,0.058-0.625,0.295c-0.782,2.07-0.87,4.175-0.168,6.271c0.73,2.178,0.9,4.355,0.254,6.577
			c-0.066,0.23-0.053,0.437,0.131,0.605c0.182,0.167,0.387,0.153,0.603,0.075c1.395-0.51,2.386-1.474,3.149-2.814
			c0.078-0.159,0.191-0.394,0.306-0.63c0.013-0.028,0.024-0.056,0.035-0.084C37.936,36.269,38.129,34.931,38.088,33.556z"/>
		<path d="M30.811,28.076c0.067-0.231,0.048-0.437-0.137-0.604c-0.182-0.163-0.387-0.147-0.603-0.068
			c-1.388,0.508-2.376,1.468-3.153,2.824c-0.078,0.166-0.216,0.424-0.328,0.692c-0.536,1.304-0.726,2.671-0.675,4.072
			c0.055,1.533,0.409,2.98,1.33,4.241c0.755,1.037,1.753,1.719,3.016,1.99c0.273,0.058,0.511-0.041,0.617-0.257
			c0.048-0.1,0.082-0.21,0.118-0.314c0.69-2.003,0.731-4.022,0.057-6.028C30.324,32.458,30.164,30.286,30.811,28.076z"/>
	</g>
	
		<line fill="none" stroke="#000000" stroke-linecap="round" stroke-linejoin="round" stroke-miterlimit="10" x1="46.606" y1="12.674" x2="46.606" y2="10.229"/>
	
		<line fill="none" stroke="#000000" stroke-linecap="round" stroke-linejoin="round" stroke-miterlimit="10" x1="40.736" y1="12.674" x2="40.736" y2="10.229"/>
	
		<line fill="none" stroke="#000000" stroke-linecap="round" stroke-linejoin="round" stroke-miterlimit="10" x1="37.804" y1="12.674" x2="37.804" y2="10.229"/>
	
		<line fill="none" stroke="#000000" stroke-linecap="round" stroke-linejoin="round" stroke-miterlimit="10" x1="34.869" y1="12.674" x2="34.869" y2="10.229"/>
	
		<line fill="none" stroke="#000000" stroke-linecap="round" stroke-linejoin="round" stroke-miterlimit="10" x1="31.936" y1="12.674" x2="31.936" y2="10.229"/>
	
		<line fill="none" stroke="#000000" stroke-linecap="round" stroke-linejoin="round" stroke-miterlimit="10" x1="29.003" y1="12.674" x2="29.003" y2="10.229"/>
	
		<line fill="none" stroke="#000000" stroke-linecap="round" stroke-linejoin="round" stroke-miterlimit="10" x1="26.069" y1="12.674" x2="26.069" y2="10.229"/>
	
		<line fill="none" stroke="#000000" stroke-linecap="round" stroke-linejoin="round" stroke-miterlimit="10" x1="23.136" y1="12.674" x2="23.136" y2="10.229"/>
	
		<line fill="none" stroke="#000000" stroke-linecap="round" stroke-linejoin="round" stroke-miterlimit="10" x1="20.202" y1="12.674" x2="20.202" y2="10.229"/>
</g>
</svg>
