<?xml version="1.0" encoding="utf-8"?>
<!-- Generator: Adobe Illustrator 16.0.4, SVG Export Plug-In . SVG Version: 6.00 Build 0)  -->
<!DOCTYPE svg PUBLIC "-//W3C//DTD SVG 1.1//EN" "http://www.w3.org/Graphics/SVG/1.1/DTD/svg11.dtd">
<svg version="1.1" id="Icons" xmlns="http://www.w3.org/2000/svg" xmlns:xlink="http://www.w3.org/1999/xlink" x="0px" y="0px"
	 width="100px" height="114.894px" viewBox="11 -55.895 100 114.894" enable-background="new 11 -55.895 100 114.894"
	 xml:space="preserve">
<g id="coffee_break">
	<path fill="#CB4E44" d="M79.085-19.722c-17.632,0-31.915,14.285-31.915,31.915c0,17.63,14.283,31.915,31.915,31.915
		S111,29.823,111,12.192C111-5.438,96.717-19.722,79.085-19.722z M79.085,35.597c-12.93,0-23.404-10.478-23.404-23.404
		c0-12.926,10.475-23.404,23.404-23.404c12.931,0,23.404,10.479,23.404,23.404C102.489,25.119,92.016,35.597,79.085,35.597z"/>
	<path fill="#E2574C" d="M79.085-19.722c-17.632,0-31.915,14.285-31.915,31.915c0,17.63,14.283,31.915,31.915,31.915
		S111,29.823,111,12.192C111-5.438,96.717-19.722,79.085-19.722z M79.085,39.853c-15.28,0-27.659-12.384-27.659-27.66
		c0-15.277,12.379-27.659,27.659-27.659s27.66,12.382,27.66,27.659C106.745,27.469,94.365,39.853,79.085,39.853z"/>
	<path fill="#E2574C" d="M11-26.107V48.36c0,5.852,4.787,10.639,10.638,10.639h46.809c5.851,0,10.638-4.787,10.638-10.639v-74.468
		H11z"/>
	<path fill="#E5766D" d="M74.83-26.107V48.36c0,3.519-2.863,6.384-6.383,6.384H21.638c-3.519,0-6.383-2.865-6.383-6.384v-74.468H11
		V48.36c0,5.852,4.787,10.639,10.638,10.639h46.809c5.851,0,10.638-4.787,10.638-10.639v-74.468H74.83z"/>
	<path fill="#CB4E44" d="M74.83-26.107V48.36c0,3.519-2.863,6.384-6.383,6.384H21.638v4.255h46.809
		c5.851,0,10.638-4.787,10.638-10.639v-74.468H74.83z"/>
	<path fill="#F4F4F4" d="M51.426-49.512c0-3.989,4.255-6.383,4.255-6.383s-10.638,2.394-10.638,8.511
		c0,6.117,10.638,4.521,10.638,8.511c0,3.989-6.383,10.638-6.383,10.638s14.894-4.521,14.894-10.638
		C64.191-44.99,51.426-45.522,51.426-49.512z"/>
	<path fill="#F4F4F4" d="M30.149-49.512c0-3.989,4.255-6.383,4.255-6.383s-10.638,2.394-10.638,8.511
		c0,6.117,10.638,4.521,10.638,8.511c0,3.989-6.383,10.638-6.383,10.638s14.894-4.521,14.894-10.638
		C42.915-44.99,30.149-45.522,30.149-49.512z"/>
	<path fill="#E5766D" d="M28.021,33.467c-3.526,0-6.383-2.856-6.383-6.383V5.808c0-3.526,2.857-6.383,6.383-6.383
		c3.526,0,6.383,2.857,6.383,6.383v21.276C34.404,30.61,31.547,33.467,28.021,33.467z"/>
	<circle fill="#E5766D" cx="28.021" cy="-11.212" r="6.383"/>
	<path fill="#CB4E44" d="M83.341,39.493c-1.389,0.214-2.806,0.359-4.256,0.359v4.255c1.446,0,2.859-0.129,4.256-0.315V39.493z"/>
	<path fill="#CB4E44" d="M83.341-15.107v-4.3c-1.396-0.185-2.81-0.314-4.256-0.314v4.255C80.535-15.467,81.952-15.323,83.341-15.107
		z"/>
</g>
</svg>
