<?xml version="1.0" encoding="utf-8"?>
<!-- Generator: Adobe Illustrator 16.0.4, SVG Export Plug-In . SVG Version: 6.00 Build 0)  -->
<!DOCTYPE svg PUBLIC "-//W3C//DTD SVG 1.1//EN" "http://www.w3.org/Graphics/SVG/1.1/DTD/svg11.dtd">
<svg version="1.1" id="Layer_1" xmlns="http://www.w3.org/2000/svg" xmlns:xlink="http://www.w3.org/1999/xlink" x="0px" y="0px"
	 width="100px" height="100px" viewBox="141.5 141.5 100 100" enable-background="new 141.5 141.5 100 100" xml:space="preserve">
<g id="Layer_x0020_1">
	<path fill="#F7F7F8" d="M225.347,218.487h0.048v1.327h-0.027c0,2.006-15.041,3.963-33.592,3.963
		c-18.554,0-33.594-1.957-33.594-3.963h-0.027v-1.327h0.045c-0.012,0.039-0.02,0.078-0.02,0.117c0,0.016,0.004,0.03,0.006,0.045
		c0.225-2.034,15.175-3.676,33.587-3.676c18.413,0,33.363,1.642,33.586,3.676c0.003-0.015,0.006-0.029,0.006-0.045
		C225.365,218.565,225.358,218.526,225.347,218.487L225.347,218.487z"/>
	<path fill="#EFEFF0" d="M191.773,214.974c18.553,0,33.592,1.666,33.592,3.724c0,2.056-15.039,3.723-33.592,3.723
		c-18.552,0-33.593-1.667-33.593-3.723C158.18,216.64,173.221,214.974,191.773,214.974z"/>
	<path fill="#DEDEDE" d="M191.773,215.972c12.669,0,22.94,1.156,22.94,2.58c0,1.425-10.271,2.579-22.94,2.579
		s-22.94-1.155-22.94-2.579C168.833,217.126,179.104,215.972,191.773,215.972z"/>
	<path fill="#D5D6D6" d="M191.773,216.951c10.311,0,18.671,0.739,18.671,1.653c0,0.912-8.36,1.653-18.671,1.653
		c-10.312,0-18.671-0.74-18.671-1.653C173.102,217.69,181.46,216.951,191.773,216.951z"/>
	<g id="_249247832">
		<path fill="#EFEFF0" d="M165.926,177.632h24.646h2.82h24.646c0.093,1.592,0.128,3.251,0.095,4.95
			c22.813-7.209,18.056,22.519-7.083,26.167c-2.454,3.556-5.63,6.361-9.659,7.899v2.097c0,0.317-0.26,0.576-0.576,0.576H183.15
			c-0.317,0-0.576-0.259-0.576-0.576v-2.097C168.977,211.457,165.09,191.846,165.926,177.632z M213.673,204.115
			c17.087-3.901,19.166-21.901,5.938-17.7c-0.821,0.804-1.492,1.052-1.597,1.639C217.336,191.829,216.002,199.096,213.673,204.115z"
			/>
		<path fill="#FFFFFF" d="M176.373,181.063c-0.366,13.615,1.328,29.332,14.062,33.938c-18.465-0.652-20.417-20.899-21.4-33.938
			H176.373L176.373,181.063z"/>
	</g>
	<path fill="#FFFFFF" d="M194.193,165.759c4.383,4.188-6.003,7.245,2.21,10.886C190.921,172.135,200.734,169.893,194.193,165.759z
		 M187.863,159.223c6.864,6.558-9.398,11.345,3.462,17.046C182.742,169.207,198.106,165.696,187.863,159.223z"/>
</g>
</svg>
