<?xml version="1.0" encoding="utf-8"?>
<!-- Generator: Adobe Illustrator 16.0.4, SVG Export Plug-In . SVG Version: 6.00 Build 0)  -->
<!DOCTYPE svg PUBLIC "-//W3C//DTD SVG 1.1//EN" "http://www.w3.org/Graphics/SVG/1.1/DTD/svg11.dtd">
<svg version="1.1" id="Ebene_1" xmlns="http://www.w3.org/2000/svg" xmlns:xlink="http://www.w3.org/1999/xlink" x="0px" y="0px"
	 width="50px" height="50px" viewBox="115.625 193.652 50 50" enable-background="new 115.625 193.652 50 50" xml:space="preserve">
<path d="M155.639,232.896l-3.279-3.257c-0.045-0.045-0.09-0.089-0.133-0.111c0-0.045,0-0.09,0-0.156v-3.569
	c0-0.981-0.805-1.785-1.785-1.785h-3.123v-11.891c0-0.379,0.469-0.78,0.557-1.138l1.406-6.202
	c1.404-5.644-2.855-11.109-8.678-11.109l0,0c-5.823,0-9.972,5.421-8.679,11.109l1.428,6.202c0.09,0.357,0.357,0.825,0.58,1.138
	v11.891h-3.123c-0.981,0-1.785,0.804-1.785,1.785v3.569c0,0.045,0,0.089,0,0.156c-0.045,0.022-0.089,0.066-0.133,0.111l-3.28,3.257
	c-0.669,0.67-1.048,1.584-1.048,2.521v5.934c0,1.271,1.026,2.275,2.297,2.275h27.529c1.271,0,2.299-1.025,2.299-2.275v-5.934
	C156.688,234.48,156.309,233.566,155.639,232.896z M130.809,225.803h19.632v3.569h-19.632V225.803z M154.902,241.374
	c0,0.268-0.223,0.491-0.514,0.491H126.86c-0.289,0-0.512-0.224-0.512-0.491v-5.934c0-0.469,0.2-0.938,0.535-1.272l3.012-3.012h0.914
	h19.632h0.914l3.012,3.012c0.334,0.335,0.535,0.804,0.535,1.272V241.374L154.902,241.374z"/>
</svg>
