<?xml version="1.0" encoding="utf-8"?>
<!-- Generator: Adobe Illustrator 16.0.4, SVG Export Plug-In . SVG Version: 6.00 Build 0)  -->
<!DOCTYPE svg PUBLIC "-//W3C//DTD SVG 1.1//EN" "http://www.w3.org/Graphics/SVG/1.1/DTD/svg11.dtd">
<svg version="1.1" id="Слой_1" xmlns="http://www.w3.org/2000/svg" xmlns:xlink="http://www.w3.org/1999/xlink" x="0px" y="0px"
	 width="50px" height="50px" viewBox="215.234 215.234 50 50" enable-background="new 215.234 215.234 50 50" xml:space="preserve">
<g>
	<path d="M237.273,230.711H223.09c-0.324,0-0.608-0.283-0.608-0.607v-4.053c0-0.324,0.284-0.607,0.608-0.607
		s0.608,0.283,0.608,0.607v3.445h12.967v-3.445c0-0.324,0.284-0.607,0.608-0.607s0.608,0.283,0.608,0.607v4.053
		C237.881,230.428,237.597,230.711,237.273,230.711z"/>
</g>
<g>
	<path d="M235.247,236.79h-10.131c-0.324,0-0.608-0.284-0.608-0.608v-6.078c0-0.324,0.284-0.607,0.608-0.607
		s0.608,0.283,0.608,0.607v5.471h8.915v-5.471c0-0.324,0.284-0.607,0.608-0.607s0.608,0.283,0.608,0.607v6.078
		C235.855,236.506,235.571,236.79,235.247,236.79z"/>
</g>
<g>
	<path d="M225.116,233.143h-7.902c-1.013,0-1.824-0.811-1.824-1.823c0-1.014,0.811-1.823,1.824-1.823h5.875
		c0.324,0,0.608,0.283,0.608,0.607s-0.284,0.607-0.608,0.607h-5.875c-0.324,0-0.608,0.284-0.608,0.608s0.284,0.607,0.608,0.607
		h7.902c0.324,0,0.608,0.284,0.608,0.608S225.44,233.143,225.116,233.143z"/>
</g>
<g>
	<path d="M234.234,261.104c-0.324,0-0.608-0.283-0.608-0.607s0.284-0.607,0.608-0.607c1.905,0,3.444-1.54,3.444-3.445v-11.549
		h-14.994v11.549c0,1.904,1.54,3.444,3.445,3.444c0.324,0,0.607,0.284,0.607,0.608s-0.283,0.607-0.607,0.607
		c-2.553,0-4.66-2.107-4.66-4.66v-12.156c0-0.324,0.283-0.608,0.607-0.608h16.209c0.324,0,0.608,0.284,0.608,0.608v12.156
		C238.894,258.997,236.787,261.104,234.234,261.104z"/>
</g>
<g>
	<path d="M222.077,255.025h-2.026c-2.553,0-4.66-2.107-4.66-4.66s2.107-4.66,4.66-4.66h2.026c0.324,0,0.607,0.283,0.607,0.607
		s-0.283,0.608-0.607,0.608h-2.026c-1.904,0-3.444,1.54-3.444,3.444s1.54,3.444,3.444,3.444h2.026c0.324,0,0.607,0.283,0.607,0.607
		S222.401,255.025,222.077,255.025z"/>
</g>
<g>
	<path d="M255.51,252.999c-2.555,0-4.66-2.107-4.66-4.66v-18.438c0-2.554,2.105-4.661,4.66-4.661c2.553,0,4.66,2.107,4.66,4.661
		v18.438C260.17,250.892,258.062,252.999,255.51,252.999z M255.51,226.456c-1.906,0-3.445,1.54-3.445,3.445v18.438
		c0,1.904,1.539,3.444,3.445,3.444c1.904,0,3.443-1.54,3.443-3.444v-18.438C258.953,227.996,257.414,226.456,255.51,226.456z"/>
</g>
<g>
	<path d="M252.672,257.659c-0.891,0-1.621-0.729-1.621-1.621s0.73-1.621,1.621-1.621c0.893,0,1.621,0.729,1.621,1.621
		S253.564,257.659,252.672,257.659z M252.672,255.633c-0.242,0-0.404,0.162-0.404,0.405s0.162,0.405,0.404,0.405
		c0.244,0,0.406-0.162,0.406-0.405S252.875,255.633,252.672,255.633z"/>
</g>
<g>
	<path d="M258.75,257.659c-0.891,0-1.621-0.729-1.621-1.621s0.73-1.621,1.621-1.621c0.893,0,1.621,0.729,1.621,1.621
		S259.643,257.659,258.75,257.659z M258.75,255.633c-0.242,0-0.404,0.162-0.404,0.405s0.162,0.405,0.404,0.405
		c0.244,0,0.406-0.162,0.406-0.405S258.953,255.633,258.75,255.633z"/>
</g>
<g>
	<path d="M255.51,239.748h-4.053c-0.324,0-0.607-0.283-0.607-0.607s0.283-0.608,0.607-0.608h4.053c0.324,0,0.607,0.284,0.607,0.608
		S255.834,239.748,255.51,239.748z"/>
</g>
<path d="M262.6,215.312h-39.51c-3.12,0-5.673,2.553-5.673,5.673c0,3.121,2.553,5.674,5.673,5.674h19.248
	c1.906,0,3.445,1.54,3.445,3.444v26.34c0,1.905-1.539,3.445-3.445,3.445h-3.12h-19.167c-1.459,0-2.634,1.175-2.634,2.634
	s1.175,2.634,2.634,2.634H262.6c1.459,0,2.635-1.175,2.635-2.634v-44.576C265.234,216.487,264.059,215.312,262.6,215.312z
	 M246.998,256.443v-26.34c0-2.553-2.105-4.66-4.66-4.66H223.09c-2.472,0-4.458-1.985-4.458-4.458c0-2.472,1.986-4.457,4.458-4.457
	h39.51c0.771,0,1.42,0.648,1.42,1.418v41.941h-18.561C246.391,259.037,246.998,257.821,246.998,256.443z M262.6,263.94h-42.549
	c-0.77,0-1.418-0.648-1.418-1.418c0-0.771,0.648-1.419,1.418-1.419h19.167h3.121h21.681v1.419
	C264.02,263.292,263.371,263.94,262.6,263.94z"/>
</svg>
