<?xml version="1.0" encoding="utf-8"?>
<!-- Generator: Adobe Illustrator 16.0.4, SVG Export Plug-In . SVG Version: 6.00 Build 0)  -->
<!DOCTYPE svg PUBLIC "-//W3C//DTD SVG 1.1//EN" "http://www.w3.org/Graphics/SVG/1.1/DTD/svg11.dtd">
<svg version="1.1" id="Layer_1" xmlns="http://www.w3.org/2000/svg" xmlns:xlink="http://www.w3.org/1999/xlink" x="0px" y="0px"
	 width="100px" height="100px" viewBox="0 0 100 100" enable-background="new 0 0 100 100" xml:space="preserve">
<g id="Layer_x0020_1">
	<path fill="#F7F7F8" d="M83.848,94.709h0.047v1.328h-0.026c0,2.006-15.041,3.963-33.593,3.963c-18.553,0-33.594-1.957-33.594-3.963
		h-0.027v-1.328H16.7c-0.013,0.039-0.021,0.078-0.021,0.117c0,0.017,0.004,0.03,0.006,0.045c0.226-2.033,15.176-3.676,33.588-3.676
		s33.363,1.643,33.586,3.676c0.002-0.015,0.006-0.028,0.006-0.045C83.865,94.787,83.857,94.748,83.848,94.709L83.848,94.709z"/>
	<path fill="#EFEFF0" d="M50.273,91.197c18.553,0,33.592,1.666,33.592,3.724c0,2.056-15.039,3.723-33.592,3.723
		S16.68,96.977,16.68,94.921C16.68,92.863,31.721,91.197,50.273,91.197z"/>
	<path fill="#DEDEDE" d="M50.273,92.195c12.668,0,22.939,1.155,22.939,2.579c0,1.425-10.271,2.579-22.939,2.579
		c-12.67,0-22.94-1.154-22.94-2.579C27.333,93.349,37.604,92.195,50.273,92.195z"/>
	<path fill="#D5D6D6" d="M50.273,93.174c10.311,0,18.67,0.738,18.67,1.652c0,0.912-8.359,1.653-18.67,1.653
		c-10.312,0-18.672-0.739-18.672-1.653S39.96,93.174,50.273,93.174z"/>
	<g id="_249247832">
		<path fill="#EFEFF0" d="M24.426,53.854h24.646h2.82h24.646c0.093,1.593,0.128,3.251,0.095,4.95
			c22.812-7.209,18.057,22.52-7.083,26.167c-2.454,3.556-5.63,6.36-9.659,7.899v2.097c0,0.317-0.26,0.575-0.576,0.575H41.65
			c-0.317,0-0.576-0.258-0.576-0.575v-2.097C27.477,87.68,23.59,68.068,24.426,53.854z M72.173,80.338
			c17.087-3.901,19.166-21.901,5.938-17.7c-0.821,0.804-1.492,1.052-1.598,1.64C75.836,68.052,74.502,75.318,72.173,80.338z"/>
		<path fill="#FFFFFF" d="M34.873,57.285C34.507,70.9,36.201,86.617,48.936,91.224c-18.465-0.651-20.418-20.899-21.4-33.938H34.873
			L34.873,57.285z"/>
	</g>
	<path fill="#FFFFFF" d="M52.693,41.981c4.383,4.188-6.004,7.245,2.209,10.886C49.421,48.357,59.234,46.115,52.693,41.981z
		 M46.363,35.445c6.863,6.559-9.398,11.346,3.462,17.047C41.242,45.43,56.605,41.918,46.363,35.445z"/>
</g>
</svg>
