<?xml version="1.0" encoding="utf-8"?>
<!-- Generator: Adobe Illustrator 16.0.4, SVG Export Plug-In . SVG Version: 6.00 Build 0)  -->
<!DOCTYPE svg PUBLIC "-//W3C//DTD SVG 1.1//EN" "http://www.w3.org/Graphics/SVG/1.1/DTD/svg11.dtd">
<svg version="1.1" id="Layer_1" xmlns="http://www.w3.org/2000/svg" xmlns:xlink="http://www.w3.org/1999/xlink" x="0px" y="0px"
	 width="464.999px" height="459.574px" viewBox="23.5 26.213 464.999 459.574" enable-background="new 23.5 26.213 464.999 459.574"
	 xml:space="preserve">
<g>
	<path fill="none" stroke="#000000" stroke-width="15" stroke-linecap="round" stroke-linejoin="round" stroke-miterlimit="10" d="
		M218.984,279.132L33.917,464.199c-3.889,3.889-3.889,10.199,0,14.088l0,0"/>
	<path fill="none" stroke="#000000" stroke-width="15" stroke-linecap="round" stroke-linejoin="round" stroke-miterlimit="10" d="
		M427.403,60.305l23.323-23.324c4.31-4.309,9.678-4.405,14.082,0l13.272,13.272c3.889,3.889,3.892,10.196,0,14.088
		c-3.889,3.889-10.199,3.889-14.088,0l-6.226-6.225l-25.076,25.077"/>
	
		<line fill="none" stroke="#000000" stroke-width="15" stroke-linecap="round" stroke-linejoin="round" stroke-miterlimit="10" x1="276.771" y1="310.399" x2="460.623" y2="126.547"/>
	<path fill="none" stroke="#000000" stroke-width="15" stroke-linecap="round" stroke-linejoin="round" stroke-miterlimit="10" d="
		M429.578,279.35c-21.065,21.064-73.844,22.574-139.527-43.108"/>
	<path fill="none" stroke="#000000" stroke-width="15" stroke-linecap="round" stroke-linejoin="round" stroke-miterlimit="10" d="
		M429.578,279.35c0,0-25.634-25.635-91.317-91.317"/>
	<path fill="none" stroke="#000000" stroke-width="15" stroke-linecap="round" stroke-linejoin="round" stroke-miterlimit="10" d="
		M429.578,279.35c21.064-21.065,22.575-73.845-43.107-139.527"/>
	
		<line fill="none" stroke="#000000" stroke-width="15" stroke-linecap="round" stroke-linejoin="round" stroke-miterlimit="10" x1="324.861" y1="323.188" x2="473.315" y2="174.734"/>
	<path fill="none" stroke="#000000" stroke-width="15" stroke-linecap="round" stroke-linejoin="round" stroke-miterlimit="10" d="
		M434.673,91.619c65.684,65.683,37.034,145.601-5.095,187.73c-42.129,42.128-122.053,70.783-187.736,5.101L434.673,91.619z"/>
	
		<polygon fill="none" stroke="#000000" stroke-width="15" stroke-linecap="round" stroke-linejoin="round" stroke-miterlimit="10" points="
		210.529,277.18 427.403,60.305 434.673,91.619 241.842,284.45 	"/>
</g>
</svg>
