<?xml version="1.0" encoding="utf-8"?>
<!-- Generator: Adobe Illustrator 16.0.4, SVG Export Plug-In . SVG Version: 6.00 Build 0)  -->
<!DOCTYPE svg PUBLIC "-//W3C//DTD SVG 1.1//EN" "http://www.w3.org/Graphics/SVG/1.1/DTD/svg11.dtd">
<svg version="1.1" id="Layer_1" xmlns="http://www.w3.org/2000/svg" xmlns:xlink="http://www.w3.org/1999/xlink" x="0px" y="0px"
	 width="98.723px" height="84.33px" viewBox="207.277 221.67 98.723 84.33" enable-background="new 207.277 221.67 98.723 84.33"
	 xml:space="preserve">
<g>
	<path fill="#EDC211" d="M256.657,299.898c27.223,0,49.295-1.153,49.343-2.576c-0.001-0.005-0.001-0.01-0.001-0.014
		c-0.089-1.422-22.145-2.572-49.342-2.572c-27.198,0-49.254,1.15-49.342,2.572c0,0.005,0,0.009-0.001,0.014
		C207.362,298.745,229.435,299.898,256.657,299.898z"/>
	<path fill="#FFD815" d="M295.216,266.589c-1.318,0-2.578,0.236-3.736,0.661c0.001-0.106,0.006-0.212,0.006-0.318
		c0-1.476-0.084-2.928-0.242-4.357h-69.225c-0.158,1.43-0.242,2.882-0.242,4.357c0,14.235,7.595,26.587,18.722,32.759
		c2.529,0.046,5.152,0.081,7.849,0.105h16.568c2.696-0.024,5.319-0.06,7.849-0.105c6.661-3.694,12.055-9.605,15.312-16.809
		c1.844,1.677,4.363,2.714,7.141,2.714c5.635,0,10.221-4.263,10.221-9.503C305.437,270.852,300.851,266.589,295.216,266.589z
		 M295.216,281.507c-2.395,0-4.472-1.219-5.48-2.99c0.648-2.082,1.126-4.246,1.416-6.474c1.084-0.849,2.507-1.365,4.064-1.365
		c3.381,0,6.133,2.429,6.133,5.415C301.349,279.078,298.597,281.507,295.216,281.507z"/>
	<path fill="#FFB208" d="M305.973,297.255c-0.048,1.424-22.12,2.577-49.342,2.577c-27.223,0-49.296-1.153-49.344-2.577
		c-0.004,0.046-0.01,0.092-0.01,0.139c0,4.753,22.096,8.606,49.354,8.606c27.256,0,49.353-3.854,49.353-8.606
		C305.983,297.347,305.978,297.301,305.973,297.255z"/>
	<path fill="#FFFFFF" d="M225.887,268.358c0,0,0.022,0.111,0.064,0.321c0.042,0.208,0.104,0.511,0.183,0.897
		c0.076,0.384,0.19,0.846,0.305,1.368c0.12,0.523,0.258,1.107,0.419,1.736c0.164,0.629,0.337,1.304,0.548,2.006
		c0.198,0.704,0.437,1.434,0.684,2.181c0.256,0.745,0.534,1.505,0.838,2.266c0.14,0.385,0.328,0.753,0.475,1.139
		c0.17,0.377,0.337,0.755,0.519,1.127c0.185,0.37,0.348,0.752,0.552,1.109c0.099,0.181,0.193,0.363,0.285,0.547
		c0.091,0.185,0.2,0.358,0.298,0.536c0.1,0.178,0.2,0.354,0.299,0.531c0.104,0.173,0.208,0.346,0.312,0.518
		c0.104,0.172,0.208,0.342,0.309,0.512c0.111,0.163,0.214,0.332,0.321,0.496c0.106,0.165,0.211,0.328,0.315,0.49
		c0.113,0.156,0.221,0.314,0.327,0.472c0.107,0.157,0.213,0.312,0.317,0.466c0.111,0.149,0.22,0.298,0.327,0.444
		c0.419,0.597,0.857,1.133,1.248,1.651c0.202,0.252,0.406,0.485,0.591,0.721c0.094,0.117,0.185,0.231,0.273,0.343
		c0.089,0.109,0.184,0.209,0.269,0.312c0.173,0.205,0.341,0.392,0.487,0.579c0.074,0.092,0.146,0.18,0.214,0.265
		c0.072,0.08,0.141,0.156,0.206,0.229c0.265,0.286,0.459,0.538,0.6,0.699c0.138,0.166,0.208,0.259,0.208,0.259l-0.106,0.162
		c0,0-0.369-0.248-1.015-0.685c-0.081-0.055-0.166-0.112-0.255-0.173c-0.086-0.065-0.176-0.133-0.269-0.203
		c-0.188-0.143-0.391-0.296-0.607-0.459c-0.108-0.083-0.223-0.164-0.333-0.256c-0.111-0.093-0.224-0.188-0.341-0.287
		c-0.232-0.198-0.475-0.407-0.729-0.625c-0.484-0.463-1.019-0.953-1.534-1.521c-0.131-0.141-0.268-0.278-0.398-0.427
		c-0.128-0.149-0.257-0.302-0.388-0.454c-0.13-0.154-0.263-0.31-0.396-0.466c-0.125-0.163-0.252-0.328-0.38-0.493
		c-0.128-0.166-0.256-0.334-0.386-0.503c-0.121-0.174-0.244-0.35-0.367-0.527c-0.122-0.177-0.245-0.355-0.369-0.535
		c-0.115-0.186-0.231-0.371-0.347-0.558c-0.24-0.369-0.453-0.758-0.669-1.147c-0.226-0.384-0.41-0.792-0.615-1.189
		c-0.192-0.403-0.365-0.816-0.541-1.224c-0.157-0.417-0.334-0.824-0.47-1.242c-0.071-0.208-0.143-0.415-0.214-0.621
		c-0.069-0.207-0.127-0.415-0.191-0.621c-0.131-0.411-0.232-0.824-0.34-1.229c-0.199-0.812-0.367-1.604-0.485-2.361
		c-0.128-0.758-0.207-1.479-0.268-2.145c-0.115-1.333-0.101-2.451-0.066-3.229c0.034-0.779,0.097-1.226,0.097-1.226L225.887,268.358
		z"/>
	<path fill="#EFEFEF" d="M257.531,221.881c0,0-0.111,0.125-0.324,0.354c-0.106,0.116-0.24,0.253-0.398,0.415
		c-0.162,0.159-0.325,0.356-0.524,0.56c-0.196,0.205-0.411,0.432-0.636,0.691c-0.23,0.254-0.48,0.521-0.731,0.82
		c-0.128,0.147-0.259,0.299-0.395,0.455c-0.129,0.159-0.262,0.323-0.398,0.492c-0.141,0.163-0.273,0.339-0.407,0.52
		c-0.132,0.182-0.284,0.354-0.412,0.549c-0.545,0.753-1.079,1.59-1.513,2.506c-0.426,0.919-0.778,1.901-0.961,2.948
		c-0.197,1.043-0.243,2.159-0.107,3.324c0.127,1.165,0.461,2.362,0.902,3.54c0.445,1.181,0.984,2.351,1.532,3.514
		c0.55,1.163,1.097,2.327,1.556,3.508c0.458,1.177,0.836,2.379,0.955,3.587c0.138,1.203-0.047,2.401-0.471,3.376
		c-0.43,0.978-1.058,1.721-1.653,2.29c-0.604,0.568-1.185,0.985-1.677,1.297c-0.493,0.31-0.89,0.535-1.167,0.675
		c-0.273,0.146-0.42,0.222-0.42,0.222l-0.127-0.225c0,0,0.135-0.091,0.388-0.262c0.255-0.167,0.617-0.429,1.059-0.781
		c0.217-0.18,0.46-0.375,0.703-0.61c0.125-0.114,0.254-0.232,0.375-0.366c0.122-0.134,0.261-0.261,0.379-0.412
		c0.5-0.58,0.98-1.305,1.268-2.162c0.279-0.858,0.345-1.844,0.133-2.867c-0.101-0.512-0.253-1.033-0.444-1.561
		c-0.195-0.527-0.432-1.059-0.691-1.594c-0.52-1.073-1.15-2.158-1.772-3.292c-0.627-1.131-1.268-2.303-1.832-3.541
		c-0.288-0.616-0.542-1.257-0.783-1.907c-0.239-0.65-0.442-1.323-0.595-2.013c-0.32-1.37-0.393-2.831-0.159-4.206
		c0.229-1.377,0.769-2.632,1.413-3.688c0.644-1.062,1.399-1.937,2.146-2.66c0.751-0.722,1.483-1.317,2.168-1.782
		c0.333-0.244,0.665-0.444,0.966-0.633c0.301-0.189,0.591-0.347,0.85-0.489c0.517-0.291,0.931-0.477,1.216-0.607
		c0.285-0.13,0.44-0.194,0.44-0.194L257.531,221.881z"/>
	<path fill="#EFEFEF" d="M263.53,228.81c0,0-0.076,0.084-0.223,0.24c-0.145,0.155-0.368,0.378-0.63,0.663
		c-0.134,0.139-0.281,0.293-0.435,0.47c-0.157,0.172-0.328,0.354-0.501,0.558c-0.355,0.396-0.724,0.862-1.103,1.371
		c-0.373,0.514-0.738,1.085-1.036,1.709c-0.292,0.628-0.532,1.3-0.658,2.015c-0.135,0.714-0.165,1.477-0.071,2.272
		c0.088,0.795,0.317,1.612,0.619,2.417c0.303,0.803,0.672,1.601,1.046,2.394c0.375,0.793,0.749,1.585,1.062,2.39
		c0.312,0.801,0.571,1.619,0.651,2.441c0.094,0.818-0.032,1.633-0.321,2.295c-0.293,0.664-0.716,1.171-1.121,1.562
		c-0.41,0.388-0.805,0.672-1.14,0.885c-0.335,0.212-0.605,0.365-0.794,0.461c-0.187,0.098-0.286,0.15-0.286,0.15l-0.086-0.149
		c0,0,0.093-0.062,0.266-0.179c0.173-0.113,0.421-0.291,0.723-0.53c0.3-0.241,0.648-0.552,0.996-0.945
		c0.342-0.396,0.674-0.888,0.87-1.474c0.189-0.588,0.234-1.261,0.089-1.96c-0.138-0.699-0.417-1.423-0.774-2.152
		c-0.354-0.732-0.783-1.473-1.206-2.245c-0.427-0.771-0.861-1.57-1.246-2.414c-0.381-0.844-0.729-1.729-0.936-2.668
		c-0.217-0.934-0.266-1.926-0.106-2.86c0.156-0.937,0.522-1.789,0.96-2.508c0.438-0.724,0.95-1.318,1.458-1.812
		c0.51-0.491,1.008-0.897,1.473-1.216c0.46-0.327,0.88-0.574,1.234-0.768c0.353-0.199,0.633-0.327,0.828-0.417
		c0.194-0.086,0.299-0.133,0.299-0.133L263.53,228.81z"/>
</g>
</svg>
