<?xml version="1.0" encoding="utf-8"?>
<!-- Generator: Adobe Illustrator 16.0.4, SVG Export Plug-In . SVG Version: 6.00 Build 0)  -->
<!DOCTYPE svg PUBLIC "-//W3C//DTD SVG 1.1//EN" "http://www.w3.org/Graphics/SVG/1.1/DTD/svg11.dtd">
<svg version="1.1" id="Layer_1" xmlns:ev="http://www.w3.org/2001/xml-events"
	 xmlns="http://www.w3.org/2000/svg" xmlns:xlink="http://www.w3.org/1999/xlink" x="0px" y="0px" width="50px" height="50px"
	 viewBox="5 -3.031 50 50" enable-background="new 5 -3.031 50 50" xml:space="preserve">
<path d="M47.103,31.88c-2.098,4.925-7,8.196-12.364,8.196h-3.433c-5.668,0-10.687-3.537-12.623-8.844
	c-4.163-1.429-6.23-5.842-8.061-9.747C9.217,18.484,7.89,15.651,6.05,15.54c-0.29-0.017-0.548-0.185-0.682-0.443
	c-0.133-0.257-0.122-0.566,0.03-0.812c0.193-0.313,0.364-0.605,0.528-0.883c0.299-0.509,0.582-0.989,0.922-1.475
	c0.155-0.219,0.406-0.349,0.674-0.349c3.019,0,4.919,1.755,6.756,3.455c1.334,1.233,2.603,2.405,4.258,2.872
	c0.407-1.245,0.993-2.418,1.748-3.498c0.028-0.038,0.852-1.083,1.143-1.42c1.915-2.22,4.614-3.678,7.68-4.168
	C29.07,8.587,29.05,8.349,29.05,8.11c0-2.341,1.905-4.247,4.247-4.247s4.246,1.906,4.246,4.247c0,0.273-0.025,0.543-0.076,0.807
	c2.859,0.579,5.373,2.004,7.152,4.072l0.911,1.066h1.572c0.039,0,0.079,0.003,0.116,0.008c4.278,0.605,7.505,4.32,7.505,8.642v0.521
	C54.726,27.628,51.418,31.333,47.103,31.88z M36.283,10.39c-0.259-0.035-0.487-0.192-0.613-0.422
	c-0.128-0.231-0.136-0.508-0.025-0.745c0.168-0.353,0.25-0.727,0.25-1.112c0-1.434-1.164-2.599-2.598-2.599
	c-1.435,0-2.596,1.166-2.596,2.599c0,0.373,0.074,0.731,0.226,1.066c0.108,0.243,0.095,0.524-0.039,0.755s-0.372,0.381-0.637,0.405
	c-2.998,0.268-5.753,1.624-7.566,3.718h20.678C41.648,12.069,39.135,10.766,36.283,10.39z M53.076,22.704
	c0-3.486-2.59-6.486-6.031-7.001h-1.893c-0.047,0-0.093-0.021-0.138-0.029c-0.05,0.009-0.097,0.029-0.149,0.029H21.409
	c-0.663,1.023-1.181,2.162-1.5,3.378c-0.108,0.406-0.505,0.673-0.918,0.604c-2.51-0.375-4.197-1.935-5.829-3.442
	c-1.576-1.456-3.069-2.837-5.21-3c-0.193,0.298-0.375,0.606-0.575,0.945c2.069,0.897,3.371,3.679,4.738,6.596
	c1.741,3.717,3.715,7.931,7.437,8.994c0.263,0.074,0.472,0.275,0.557,0.534c1.6,4.854,6.099,8.116,11.197,8.116h3.433
	c4.855,0,9.283-3.061,11.017-7.612c0.114-0.302,0.395-0.509,0.713-0.529c3.707-0.247,6.608-3.349,6.608-7.062V22.704z
	 M47.484,26.928c-0.155-0.196-0.213-0.454-0.155-0.701c0.004-0.014,0.308-1.331,0.308-3.107c0-1.82-0.304-3.088-0.306-3.1
	c-0.06-0.246-0.004-0.506,0.153-0.705c0.156-0.198,0.395-0.314,0.646-0.314c2.272,0,4.122,1.849,4.122,4.12s-1.85,4.121-4.122,4.121
	C47.879,27.242,47.643,27.126,47.484,26.928z M50.603,23.121c0-1.002-0.599-1.866-1.457-2.255c0.074,0.589,0.14,1.361,0.14,2.255
	c0,0.883-0.067,1.662-0.142,2.257C50.002,24.991,50.603,24.125,50.603,23.121z M40.632,34.87c-0.146,0.104-0.315,0.154-0.48,0.154
	c-0.258,0-0.51-0.121-0.672-0.344c-0.264-0.37-0.179-0.884,0.191-1.15c1.371-0.982,2.409-2.328,3.004-3.889
	c0.159-0.427,0.638-0.638,1.063-0.478c0.426,0.163,0.638,0.638,0.477,1.064C43.506,32.092,42.265,33.697,40.632,34.87z
	 M22.825,20.813c-0.103,0.362-0.433,0.598-0.792,0.598c-0.074,0-0.15-0.01-0.226-0.03c-0.438-0.125-0.692-0.581-0.567-1.02
	c0.401-1.407,0.848-2.554,1.327-3.412c0.223-0.396,0.726-0.537,1.123-0.317c0.397,0.223,0.538,0.726,0.316,1.124
	C23.594,18.489,23.186,19.547,22.825,20.813z M22.414,23.35c-0.057,0.623-0.089,1.235-0.089,1.729c0,0.454-0.369,0.823-0.824,0.823
	s-0.824-0.369-0.824-0.823c0-0.551,0.032-1.201,0.095-1.881c0.042-0.453,0.445-0.783,0.896-0.744
	C22.122,22.496,22.456,22.897,22.414,23.35z"/>
</svg>
